<svg xmlns="http://www.w3.org/2000/svg" viewBox="0 0 43.61 40"><title>logo-filezilla</title><g id="Calque_2" data-name="Calque 2"><g id="Calque_1-2" data-name="Calque 1"><path id="logo_filezilla" data-name="logo filezilla" d="M43.61,3.1V1.33a1.55,1.55,0,0,1-1-.39A1.28,1.28,0,0,1,42.16,0H40.23A1.43,1.43,0,0,1,38.7,1.28,1.42,1.42,0,0,1,37.31,0H35.38a1.43,1.43,0,0,1-1.55,1.26h0A1.42,1.42,0,0,1,32.46,0H30.53A1.43,1.43,0,0,1,29,1.28,1.42,1.42,0,0,1,27.61,0H25.68a1.43,1.43,0,0,1-1.53,1.28A1.42,1.42,0,0,1,22.76,0H20.84a1.43,1.43,0,0,1-1.55,1.26h0A1.42,1.42,0,0,1,17.91,0H16a1.39,1.39,0,0,1-1.48,1.29h0A1.4,1.4,0,0,1,13.07,0H11.15A1.42,1.42,0,0,1,9.62,1.27,1.4,1.4,0,0,1,8.23,0H6.3A1.41,1.41,0,0,1,4.8,1.29h0A1.4,1.4,0,0,1,3.38,0H1.45A1.28,1.28,0,0,1,1,.94a1.55,1.55,0,0,1-1,.39V3.1A1.39,1.39,0,0,1,1.4,4.49,1.4,1.4,0,0,1,0,5.78V7.55A1.38,1.38,0,0,1,1.4,8.93h0A1.39,1.39,0,0,1,0,10.22V12a1.39,1.39,0,0,1,1.45,1.34A1.41,1.41,0,0,1,0,14.67v1.76a1.4,1.4,0,0,1,1.45,1.35h0A1.4,1.4,0,0,1,0,19.11H0v1.78a1.4,1.4,0,0,1,1.41,1.38h0A1.4,1.4,0,0,1,0,23.56v1.77a1.4,1.4,0,0,1,1.45,1.34h0A1.39,1.39,0,0,1,0,28v1.77a1.39,1.39,0,0,1,1.41,1.37h0A1.4,1.4,0,0,1,0,32.45v1.77a1.41,1.41,0,0,1,1.45,1.34A1.39,1.39,0,0,1,0,36.9H0v1.77A1.4,1.4,0,0,1,1.45,40H3.38a1.42,1.42,0,0,1,1.55-1.26A1.4,1.4,0,0,1,6.3,40H8.23a1.42,1.42,0,0,1,1.52-1.29A1.41,1.41,0,0,1,11.15,40h1.93A1.47,1.47,0,0,1,16,40h1.93a1.47,1.47,0,0,1,2.92,0h1.93a1.47,1.47,0,0,1,2.92,0h1.92a1.42,1.42,0,0,1,1.54-1.27A1.4,1.4,0,0,1,30.55,40h1.92A1.42,1.42,0,0,1,34,38.73,1.39,1.39,0,0,1,35.39,40h1.93a1.47,1.47,0,0,1,2.92,0h1.92a1.39,1.39,0,0,1,1.45-1.33h0V36.9a1.34,1.34,0,1,1,0-2.68V32.46a1.34,1.34,0,1,1,0-2.68V28a1.38,1.38,0,0,1-1.34-1.44,1.4,1.4,0,0,1,1.34-1.24V23.56a1.34,1.34,0,1,1,0-2.68V19.12a1.34,1.34,0,1,1,0-2.68V14.67a1.34,1.34,0,1,1,0-2.68V10.22a1.38,1.38,0,0,1-1.38-1.4,1.4,1.4,0,0,1,1.38-1.28V5.78a1.39,1.39,0,0,1-1.37-1.42A1.4,1.4,0,0,1,43.61,3.1ZM36.22,19.5,24.59,29.87a22.34,22.34,0,0,0,3.16.38,23.92,23.92,0,0,0,7.79-1.53L34.48,33.3a14.79,14.79,0,0,1-6.73,1.45c-2,0-3.89-.6-5.84-.6a7.84,7.84,0,0,0-3.65.67L16.15,31.4l12-10.9H14.34L11.7,31.85H5.94l6-26H31L29.8,11.12H16.53L15.39,16H37.16l-.93,3.5Z"/></g></g></svg>