<svg xmlns="http://www.w3.org/2000/svg" viewBox="0 0 38.62 40"><defs><style>.cls-1,.cls-3,.cls-4{fill:#fff;}.cls-1{opacity:0.1;}.cls-1,.cls-4{isolation:isolate;}.cls-2{fill:#010101;}.cls-4{opacity:0.2;}</style></defs><title>logo-insomnia</title><g id="Calque_2" data-name="Calque 2"><g id="Calque_1-2" data-name="Calque 1"><path class="cls-1" d="M19.31,1.38A19.31,19.31,0,1,0,38.62,20.69,19.31,19.31,0,0,0,19.31,1.38Z"/><path class="cls-2" d="M19.31,0A19.31,19.31,0,1,0,38.62,19.31,19.32,19.32,0,0,0,19.31,0Z"/><path class="cls-1" d="M19.31,5.52a15,15,0,0,0-4.46.68,7.58,7.58,0,1,1-10,10,15.44,15.44,0,0,0-.67,4.48A15.17,15.17,0,1,0,19.31,5.52Z"/><path class="cls-3" d="M19.31,4.14a15,15,0,0,0-4.46.68,7.58,7.58,0,1,1-10,10,15.37,15.37,0,0,0-.67,4.47A15.17,15.17,0,1,0,19.31,4.14Z"/><path class="cls-4" d="M19.31,0A19.32,19.32,0,0,0,0,19.31l0,.57a19.29,19.29,0,0,1,38.56.24q0-.4,0-.81A19.31,19.31,0,0,0,19.31,0Z"/></g></g></svg>