<svg xmlns="http://www.w3.org/2000/svg" viewBox="0 0 43.87 40"><title>logo-atom</title><g id="Calque_2" data-name="Calque 2"><g id="Calque_1-2" data-name="Calque 1"><path id="logo_atom" data-name="logo atom" d="M37.46,14.56a46.15,46.15,0,0,0-15.08-3.1c-.92-.05-1.8-.07-2.65-.07C24,6.22,28.51,2.74,31.5,2.63A2.52,2.52,0,0,1,33,3c1.29.84,1.65,3.23,1,6.57a.85.85,0,0,0,.65,1,.84.84,0,0,0,1-.65h0c.82-4.16.22-7-1.72-8.29A4.13,4.13,0,0,0,31.44,1c-3.75.15-9,4.21-13.88,10.46a46.83,46.83,0,0,0-5.91.52c-1.18-5.3-.71-9.1,1.09-10a2.19,2.19,0,0,1,.83-.23c1.28-.1,3,.72,5,2.32A.83.83,0,1,0,19.6,2.73C17.3.82,15.17-.12,13.43,0A4.12,4.12,0,0,0,12,.41C9.79,1.53,8.91,4.67,9.46,9.26c.13,1,.29,2,.53,3-6,1.2-9.82,3.6-10,6.62C-.1,21,1.59,23,4.9,24.74a.84.84,0,0,0,.77-1.49c-2.65-1.36-4.08-2.9-4-4.31.09-2,3.24-4,8.7-5.08a51.47,51.47,0,0,0,1.92,5.65,40.64,40.64,0,0,0-3.91,9.87c-1,4.51-.47,7.72,1.58,9.05a4.15,4.15,0,0,0,2.27.64c1.71,0,3.78-.84,6.12-2.51a.84.84,0,0,0-.92-1.4l0,0c-2.83,2-5.2,2.69-6.52,1.83S9.19,33.48,10,29.76a37.72,37.72,0,0,1,3.12-8.27c.37.8.75,1.6,1.16,2.4a45.91,45.91,0,0,0,9,12.52C25.83,38.77,28.18,40,30.12,40a3.85,3.85,0,0,0,1.79-.41c2.09-1.07,3-4,2.55-8.36a43.79,43.79,0,0,0-4.3-13.9.84.84,0,0,0-1.51.72c4.91,10.24,5.26,18.63,2.5,20-2.91,1.49-9.92-4.3-15.34-15-.62-1.2-1.16-2.38-1.65-3.53.63-1.12,1.28-2.23,2-3.35s1.48-2.17,2.24-3.19h.72c1,0,2.06,0,3.17.09,11.94.63,20.07,4.68,19.9,7.92-.07,1.4-1.69,2.81-4.43,3.88a.84.84,0,0,0,.3,1.62,1.06,1.06,0,0,0,.31,0c3.48-1.35,5.39-3.21,5.5-5.36.12-2.43-2.14-4.77-6.4-6.58v0Zm-22.7.78c-.49.76-.95,1.51-1.4,2.27-.53-1.4-1-2.76-1.32-4,1.3-.2,2.72-.34,4.23-.43-.52.71-1,1.45-1.5,2.21v0Zm7.18,2.15A2.52,2.52,0,1,0,24.45,20a2.51,2.51,0,0,0-2.51-2.51Z"/></g></g></svg>