<svg id="Calque_1" data-name="Calque 1" xmlns="http://www.w3.org/2000/svg" viewBox="0 0 31.79 31"><title>logo-github-black.svg</title><path id="logo_github" data-name="logo github" d="M10.63,25c0,.13-.14.23-.33.23s-.36-.08-.36-.23.15-.23.33-.23S10.63,24.81,10.63,25Zm-2-.29c-.05.13.08.28.28.32a.31.31,0,0,0,.4-.13c0-.13-.09-.28-.28-.33a.32.32,0,0,0-.4.14Zm2.83-.11c-.18.05-.31.17-.29.32s.18.21.38.16.31-.16.29-.29-.19-.21-.38-.19ZM15.69,0A15.37,15.37,0,0,0,0,15v.6A16.07,16.07,0,0,0,10.86,31c.82.15,1.11-.36,1.11-.77s0-2.59,0-3.94c0,0-4.48,1-5.42-1.91,0,0-.73-1.86-1.79-2.35,0,0-1.46-1,.1-1a3.4,3.4,0,0,1,2.48,1.65,3.39,3.39,0,0,0,4.59,1.39L12,24a3.63,3.63,0,0,1,1-2.16c-3.58-.4-7.2-.91-7.2-7.08A4.88,4.88,0,0,1,7.33,11,6.1,6.1,0,0,1,7.5,6.64c1.34-.42,4.42,1.73,4.42,1.73a15.07,15.07,0,0,1,8,0s3.09-2.15,4.43-1.73A6.1,6.1,0,0,1,24.57,11a5,5,0,0,1,1.65,3.78c0,6.18-3.78,6.67-7.36,7.08a3.77,3.77,0,0,1,1.09,3c0,2.16,0,4.83,0,5.36s.3.92,1.11.78A15.91,15.91,0,0,0,31.79,15.64C31.79,6.75,24.58,0,15.69,0ZM6.23,22.11c-.08.06-.06.21,0,.33s.25.15.33.06.06-.21-.05-.33S6.31,22,6.23,22.11Zm-.69-.52c0,.08,0,.19.15.25a.19.19,0,0,0,.26,0v0c0-.08,0-.18-.14-.25s-.24,0-.28.05Zm2.08,2.28c-.1.08-.07.28.08.4s.33.17.42.06,0-.27-.09-.4a.3.3,0,0,0-.42-.06Zm-.73-.94c-.1.06-.1.23,0,.38s.27.21.35.14a.28.28,0,0,0,0-.4C7.15,22.91,7,22.85,6.89,22.93Z"/></svg>